<?xml version="1.0" encoding="utf-8"?>
<!-- Generator: Adobe Illustrator 21.1.0, SVG Export Plug-In . SVG Version: 6.00 Build 0)  -->
<svg version="1.1" id="Слой_1" xmlns="http://www.w3.org/2000/svg" xmlns:xlink="http://www.w3.org/1999/xlink" x="0px" y="0px"
	 viewBox="0 0 250 100" style="enable-background:new 0 0 250 100;" xml:space="preserve">
<rect style="fill-rule:evenodd;clip-rule:evenodd;fill:#FCB116;" width="250" height="100"/>
<g>
	<path style="fill-rule:evenodd;clip-rule:evenodd;fill:#FFFFFF;" d="M94.3,29.7h4.5l1.1-3.7h5.5l1.1,3.7h4.5l-6-17.7h-4.6
		L94.3,29.7L94.3,29.7z M100.9,22.5l1-3.4c0.3-1.1,0.7-3,0.7-3h0c0,0,0.4,1.9,0.7,3l1,3.4H100.9L100.9,22.5z M112.7,29.7h4.3v-7.2
		h1.8l3.7,7.2h4.9l-5.1-9.2v0l4.8-8.5h-4.7l-3.7,6.8H117V12h-4.3V29.7L112.7,29.7z M127.5,29.7h4.5L133,26h5.5l1.1,3.7h4.5l-6-17.7
		h-4.6L127.5,29.7L127.5,29.7z M134,22.5l1-3.4c0.3-1.1,0.7-3,0.7-3h0c0,0,0.4,1.9,0.7,3l1,3.4H134L134,22.5z M150.5,26
		c1.5-2.7,1.9-6.7,1.9-9.5v-0.8h3.5V26H150.5L150.5,26z M144.2,26v7.2h4v-3.5h10.2v3.5h3.8V26h-2V12h-12v4.2c0,3.2-0.4,6.7-2.3,9.8
		H144.2L144.2,26z M165,29.7h11.5V26h-7.1v-3.3h5.4v-3.7h-5.4v-3.2h6.8V12H165V29.7L165,29.7z M178.6,29.7h4.4l0.5-8
		c0.1-1.3,0-3,0-3h0c0,0,0.6,1.9,1,3l1.9,5.1h3.7l1.9-5.1c0.4-1.1,1-3,1-3h0c0,0-0.1,1.6,0,3l0.5,8h4.3L196.5,12h-4.7l-2.6,7.5
		c-0.4,1.1-0.9,2.9-0.9,2.9h0c0,0-0.5-1.8-0.9-2.9l-2.6-7.5h-4.7L178.6,29.7L178.6,29.7z M201,29.7h4.4l4.9-8.3c0.7-1.2,1.5-3,1.5-3
		h0c0,0-0.2,1.9-0.2,3v8.3h4.3V12h-4.4l-4.9,8.3c-0.7,1.2-1.5,3-1.5,3h0c0,0,0.2-1.9,0.2-3V12H201V29.7L201,29.7z M218,29.7h4.8
		l3.3-6h1.6v6h4.3V12h-6.2c-1.8,0-2.7,0.1-3.4,0.4c-1.9,0.7-3.3,2.5-3.3,5.2c0,2.1,0.8,4.1,2.9,5.3v0c0,0-0.2,0.2-0.7,1.1L218,29.7
		L218,29.7z M225.9,20.1c-1.4,0-2.3-0.7-2.3-2.3c0-0.6,0.1-1.3,0.6-1.7c0.4-0.3,1.1-0.5,2.1-0.5h1.5v4.4H225.9L225.9,20.1z
		 M100.1,58.3h4.3v-14h5.4v-3.7H94.7v3.7h5.4V58.3L100.1,58.3z M110.6,49.3c0,5.2,3.9,9.3,9.3,9.3c5.4,0,9.3-4.1,9.3-9.3
		c0-5.1-3.9-9-9.3-9C114.5,40.2,110.6,44.2,110.6,49.3L110.6,49.3z M115.1,49.3c0-2.9,2.1-5.1,4.8-5.1c2.7,0,4.8,2.2,4.8,5.1
		c0,3-2.1,5.3-4.8,5.3C117.2,54.6,115.1,52.3,115.1,49.3L115.1,49.3z M131.9,58.3h6.5c3.5,0,6.7-1.4,6.7-5.3c0-1.6-0.7-3.4-2.8-4v0
		c1.3-0.8,2.1-2.3,2.1-3.8c0-3-2.5-4.6-6-4.6h-6.5V58.3L131.9,58.3z M136.2,47.4v-3.1h2.2c1.2,0,1.6,0.7,1.6,1.5
		c0,0.8-0.5,1.6-1.6,1.6H136.2L136.2,47.4z M136.2,54.5v-3.7h2.6c1.3,0,1.9,0.8,1.9,1.8c0,1-0.6,1.9-1.9,1.9H136.2L136.2,54.5z
		 M145.8,58.3h4.5l1.1-3.7h5.5l1.1,3.7h4.5l-6-17.7h-4.6L145.8,58.3L145.8,58.3z M152.4,51.1l1-3.4c0.3-1.1,0.7-3,0.7-3h0
		c0,0,0.4,1.9,0.7,3l1,3.4H152.4L152.4,51.1z M164.2,58.3h4.3v-5.5h3c3.4,0,5.8-2.6,5.8-6.1c0-3.6-2.3-6.1-5.8-6.1h-7.4V58.3
		L164.2,58.3z M168.6,49.1v-4.8h2.2c1.4,0,2.2,1,2.2,2.4c0,1.4-0.7,2.4-2.3,2.4H168.6L168.6,49.1z M179.7,58.3h4.3v-6.9h6.4v6.9h4.3
		V40.5h-4.3v7.1H184v-7.1h-4.3V58.3L179.7,58.3z M197.6,49.3c0,5.2,3.9,9.3,9.3,9.3c5.4,0,9.3-4.1,9.3-9.3c0-5.1-3.9-9-9.3-9
		C201.5,40.2,197.6,44.2,197.6,49.3L197.6,49.3z M202.1,49.3c0-2.9,2.1-5.1,4.8-5.1c2.7,0,4.8,2.2,4.8,5.1c0,3-2.1,5.3-4.8,5.3
		C204.2,54.6,202.1,52.3,202.1,49.3L202.1,49.3z M218.9,58.3h4.3v-14h6.5v-3.7h-10.9V58.3L218.9,58.3z M230.5,49.3
		c0,5.2,3.9,9.3,9.3,9.3c5.4,0,9.3-4.1,9.3-9.3c0-5.1-3.9-9-9.3-9C234.4,40.2,230.5,44.2,230.5,49.3L230.5,49.3z M234.9,49.3
		c0-2.9,2.1-5.1,4.8-5.1c2.7,0,4.8,2.2,4.8,5.1c0,3-2.1,5.3-4.8,5.3C237.1,54.6,234.9,52.3,234.9,49.3L234.9,49.3z M96.2,86.8h7.4
		c3.4,0,5.8-2.3,5.8-5.6c0-3.3-2.3-5.7-5.8-5.7h-3v-2.8h7.2v-3.7H96.2V86.8L96.2,86.8z M100.6,83.1v-3.8h2.1c1.5,0,2.3,0.8,2.3,1.9
		c0,1.1-0.7,1.9-2.2,1.9H100.6L100.6,83.1z M111.9,86.8h4.4l4.9-8.3c0.7-1.2,1.5-3,1.5-3h0c0,0-0.2,1.9-0.2,3v8.3h4.3V69.1h-4.4
		l-4.9,8.3c-0.7,1.2-1.5,3-1.5,3h0c0,0,0.2-1.9,0.2-3v-8.3h-4.3V86.8L111.9,86.8z M129.1,84.4c1.7,1.8,4.1,2.7,6.5,2.7
		c3.4,0,6.3-2,6.3-5.5c0-1.9-1.1-3.3-2.8-3.9v0c1.1-0.7,2.3-1.8,2.3-3.9c0-3.4-3.1-5-5.7-5c-2,0-4.2,0.4-6.1,2.1l1.7,3.1
		c1.2-1,2.6-1.5,3.7-1.5c1.3,0,2.1,0.8,2.1,1.9c0,0.9-0.7,1.8-2.1,1.8h-1.7v3.4h2.1c1.4,0,2.1,0.7,2.1,1.7c0,1.3-0.8,2-2.3,2
		c-1.5,0-2.9-0.9-3.8-1.8L129.1,84.4L129.1,84.4z M144.7,86.8h4.3v-6.9h6.4v6.9h4.3V69.1h-4.3v7.1h-6.4v-7.1h-4.3V86.8L144.7,86.8z
		 M163.6,86.8H175v-3.7h-7.1v-3.3h5.4V76h-5.4v-3.2h6.8v-3.7h-11.1V86.8L163.6,86.8z M176.6,77.9c0,5.3,3.6,9.2,9.3,9.2
		c3.2,0,5.6-1.4,7.1-3l-2.2-3.2c-1.2,1.2-3,2.2-4.7,2.2c-3.4,0-5-2.7-5-5.3c0-2.6,1.5-5.1,5-5.1c1.6,0,3.3,0.8,4.4,1.8l2-3.3
		c-1.7-1.7-4.3-2.5-6.6-2.5C180.4,68.8,176.6,72.8,176.6,77.9L176.6,77.9z M193.3,86.8h4.5l1.1-3.7h5.5l1.1,3.7h4.5l-6-17.7h-4.6
		L193.3,86.8L193.3,86.8z M199.9,79.6l1-3.4c0.3-1.1,0.7-3,0.7-3h0c0,0,0.4,1.9,0.7,3l1,3.4H199.9z"/>
	<path style="fill-rule:evenodd;clip-rule:evenodd;fill:#FFFFFF;" d="M40.9,10c1.8,0,3.6,0.1,5.3,0.4c-10.6,2.1-19.5,8.7-25.9,17.9
		c-0.3-0.1-0.6-0.2-1-0.2c-1.6,0-2.9,1.3-2.9,2.9c0,0.8,0.3,1.5,0.9,2.1c-3.1,5.5-5.5,11.7-7,18.2c0,0-0.1,0-0.1,0
		C7.8,45.7,6.4,39,6,31.2C12.5,18.6,25.7,10,40.9,10L40.9,10z M8.4,52.3C6.3,47.6,4.8,42,4,35.7c-1.6,4.3-2.5,8.9-2.5,13.7
		c0,1.4,0.1,2.8,0.2,4.1c2,0.1,4,0.2,6,0.2C7.8,53.2,8.1,52.7,8.4,52.3L8.4,52.3z M8.2,55.8c0.3,0.4,0.6,0.7,1,0.9
		c-0.7,5-1,10.1-0.6,15.2C5.3,67.2,3,61.7,2,55.8C4.1,55.9,6.2,55.9,8.2,55.8L8.2,55.8z M46.4,10.4c-11.2,3-19.4,9.9-25,18.6
		c0.5,0.5,0.8,1.2,0.8,2c0,1.6-1.3,2.9-2.9,2.9c-0.2,0-0.4,0-0.7-0.1c-2.9,5.6-4.9,11.8-6.2,18.1c0.5,0.4,0.8,1,1,1.6
		C31,52.3,48.9,45.7,59.5,31c-0.9-0.5-1.6-1.5-1.6-2.6c0-1.1,0.6-2,1.5-2.5c-2.2-5-4.9-9.8-8.3-14.5C49.6,11,48,10.6,46.4,10.4
		L46.4,10.4z M51.3,11.4c5.4,1.5,10.3,4.1,14.5,7.5c-0.9,2.5-2,4.9-3.2,7.2c-0.5-0.4-1.1-0.6-1.8-0.6c-0.2,0-0.4,0-0.6,0.1
		C57.9,20.7,54.9,15.9,51.3,11.4L51.3,11.4z M65.9,19c-0.8,2.6-1.8,5-3,7.4c0.6,0.5,0.9,1.3,0.9,2.1c0,1-0.5,1.9-1.3,2.4
		c0.7,1.7,1.2,3.5,1.7,5.3c3.7-1.8,7.7-3.2,12-4.1C73.7,27,70.2,22.5,65.9,19L65.9,19z M76.3,32.2c2.5,5.2,3.9,11,3.9,17.2
		c0,14.7-8,27.5-19.9,34.2c1.7-4.2,3-8.3,4-12.3c1.5-0.1,2.7-1.4,2.7-2.9c0-1.1-0.6-2-1.5-2.5c1.8-10.3,1.4-19.9-1-28.9
		C68,35.1,71.9,33.5,76.3,32.2L76.3,32.2z M57.5,85.1c2.1-4.9,3.7-9.6,4.9-14.3c-0.5-0.3-0.9-0.9-1.1-1.5
		c-7.4,2.3-14.2,3.5-20.4,3.5c-0.1,1.4-1.1,2.5-2.5,2.7c-0.9,4.2-1.7,8.6-2.2,12.9c1.5,0.2,3.1,0.3,4.7,0.3
		C46.8,88.7,52.5,87.4,57.5,85.1L57.5,85.1z M34.1,88.2C25,86.6,17,81.9,11.2,75.3c-0.5-5.4-0.5-11.3,0.3-17.3
		c5.5,8.2,13.5,13.1,23.6,14.5c0,0.1,0,0.1,0,0.2c0,1,0.5,1.9,1.3,2.4C35.4,79.1,34.6,83.5,34.1,88.2L34.1,88.2z M12.6,56.3
		c4.9,8.3,12.6,13.3,22.9,14.9c0.5-0.8,1.3-1.3,2.3-1.4c2.1-6.9,4.9-12.9,8.4-17.9c-0.4-0.5-0.6-1.1-0.6-1.8c0-1.6,1.3-2.9,2.9-2.9
		c0.4,0,0.8,0.1,1.1,0.2c3.8-4.4,8.3-8,13.4-10.7c-0.4-1.8-1-3.7-1.6-5.5c-0.2,0-0.4,0.1-0.6,0.1c-0.3,0-0.6,0-0.8-0.1
		c-9.3,14-25.7,22.9-46.9,24.4C13,55.9,12.8,56.1,12.6,56.3L12.6,56.3z M63.3,37.7c-5.1,2.9-9.2,6.5-12.5,10.5
		c0.4,0.5,0.7,1.2,0.7,1.9c0,1.6-1.3,2.9-2.9,2.9c-0.4,0-0.8-0.1-1.1-0.2c-3.4,5.3-5.9,11.3-7.7,17.6c0.4,0.3,0.8,0.8,1,1.3
		c6.1,0.2,12.9-0.6,20.5-2.5c-0.1-0.2-0.1-0.5-0.1-0.7c0-1.5,1.1-2.7,2.5-2.9C65.4,55.8,65.3,46.5,63.3,37.7z"/>
</g>
</svg>
